<svg xmlns="http://www.w3.org/2000/svg" version="1.1" id="Capa_1" x="0" y="0" viewBox="0 0 468.792 468.792" xml:space="preserve" width="512" height="512"><path d="M234.396 0C104.946 0 0 104.946 0 234.396s104.946 234.396 234.396 234.396 234.396-104.946 234.396-234.396C468.792 104.914 363.846 0 234.396 0zm146.485 370.329c0 5.816-4.736 10.552-10.615 10.552H98.462c-5.816 0-10.584-4.704-10.584-10.552V98.462c0-5.816 4.736-10.584 10.584-10.584h271.804c5.848 0 10.615 4.736 10.615 10.584v271.867zM175.789 234.396c0-32.355 26.252-58.607 58.607-58.607s58.607 26.252 58.607 58.607-26.252 58.607-58.607 58.607-58.607-26.253-58.607-58.607zm117.214-117.214h58.607v58.607h-58.607v-58.607zm26.633 102.562h31.973v131.834H117.214V219.744h32.005c-1.24 5.88-1.971 8.422-1.971 14.652 0 48.119 39.124 87.179 87.179 87.179 48.119 0 87.179-39.061 87.179-87.179-.031-6.23-.73-8.772-1.97-14.652z" data-original="#090509" class="active-path" data-old_color="#F8F5F8" fill="#FDFAFD"/></svg>