<svg id="unity-logo" class="svg-unity-logo" aria-labelledby="unity-logo-title" role="img" xmlns="http://www.w3.org/2000/svg" viewBox="0 0 266 46"><g fill="#000" fill-rule="evenodd"><path d="M7.38 13.73a182.227 182.227 0 0 1-3.07-3.269C3.493 9.568 2.972 9.01 2.746 8.79c-.589-.572-1.072-.845-1.452-.818-.379.026-.67.24-.875.644-.203.404-.331.932-.384 1.585-.05.653-.046 1.31.013 1.97.06.659.175 1.27.347 1.83.17.564.368.954.594 1.174.802.78 1.73 1.697 2.77 2.74 1.202-1.199 2.884-2.337 4.463-3.266a93.644 93.644 0 0 0-.843-.919m27.824 5.664c.799 1.392 1.388 2.73 1.77 4.008.38 1.278.51 2.46.388 3.545-.122 1.084-.58 2.032-1.375 2.842-.978.998-2.16 1.51-3.539 1.541-.01 0-.019.004-.029.004a8.954 8.954 0 0 1-1.066-.047 10.844 10.844 0 0 1-1.648-.32c-.58-.153-1.17-.34-1.782-.593-1.067-.44-2.165-1.013-3.29-1.694a32.599 32.599 0 0 1-1.72-1.107 69.242 69.242 0 0 1-5.145-3.944c-.37-.312-.724-.633-1.088-.95a36.1 36.1 0 0 0-1.407.888 20.336 20.336 0 0 0-3.039 2.454c.72.64 1.453 1.28 2.21 1.92a66.022 66.022 0 0 0 5.02 3.869 39.896 39.896 0 0 0 3.788 2.309l.099.053c.42.226.838.474 1.26.68.188.092.372.168.558.254 1.084.497 2.15.893 3.194 1.169.432.114.862.212 1.288.288 1.628.292 3.189.247 4.684-.133 1.493-.381 2.872-1.218 4.139-2.509 1-1.02 1.613-2.192 1.837-3.515.222-1.323.145-2.731-.23-4.226-.375-1.494-1.005-3.052-1.89-4.673a45.665 45.665 0 0 0-3.088-4.87c-.305-.424-.636-.843-.955-1.265a48.57 48.57 0 0 1-.107 2.13c.41.634.803 1.266 1.163 1.892M21.997 37.441a182.43 182.43 0 0 1-1.31 4.28c-.369 1.15-.594 1.879-.672 2.184-.204.793-.199 1.346.014 1.66.213.313.545.458.998.432.453-.026.977-.18 1.572-.461a11.89 11.89 0 0 0 1.706-.996 9.18 9.18 0 0 0 1.42-1.215c.405-.428.646-.793.725-1.1.276-1.08.611-2.339.999-3.756-1.644-.436-3.476-1.317-5.074-2.214-.158.491-.322.997-.378 1.186"/><path d="M13.014 10.627c.812-1.385 1.68-2.561 2.602-3.529.922-.967 1.886-1.67 2.89-2.108 1.005-.437 2.058-.516 3.161-.236 1.358.345 2.394 1.106 3.11 2.28.006.009.013.014.019.024.18.297.344.611.492.942.22.486.394 1.022.546 1.58.156.577.289 1.18.374 1.832.15 1.14.2 2.374.171 3.684-.014.66-.043 1.332-.104 2.035a68.547 68.547 0 0 1-.859 6.406c-.086.476-.188.942-.282 1.414.491.268.983.527 1.476.768 1.245.61 2.462 1.07 3.655 1.393.196-.94.386-1.892.566-2.864.393-2.12.677-4.209.856-6.263.131-1.515.15-2.98.115-4.419l-.003-.112c-.013-.475-.007-.959-.038-1.426-.014-.207-.04-.404-.059-.608a19.69 19.69 0 0 0-.579-3.337 16.14 16.14 0 0 0-.393-1.254c-.56-1.55-1.38-2.872-2.458-3.97C27.194 1.761 25.777.99 24.019.544 22.631.191 21.305.25 20.042.718c-1.262.47-2.45 1.24-3.563 2.31-1.112 1.072-2.152 2.393-3.12 3.967a45.615 45.615 0 0 0-2.695 5.097c-.215.475-.415.97-.621 1.455a49.458 49.458 0 0 1 1.906-.973 42 42 0 0 1 1.065-1.948m22.778 2.58c1.732-.419 3.191-.756 4.379-1.011 1.186-.257 1.932-.428 2.236-.513.792-.22 1.27-.501 1.438-.842.166-.34.126-.699-.123-1.076-.25-.377-.645-.752-1.187-1.124a11.873 11.873 0 0 0-1.72-.973 9.218 9.218 0 0 0-1.767-.617c-.575-.136-1.014-.16-1.319-.074-1.078.3-2.342.642-3.768 1.016.442 1.636.591 3.655.61 5.48.506-.109 1.028-.22 1.22-.267"/><path d="M16.951 34.357c-1.61-.008-3.068-.169-4.371-.479-1.303-.31-2.396-.79-3.28-1.438-.882-.647-1.478-1.514-1.786-2.606-.378-1.342-.234-2.616.43-3.82l.01-.028c.17-.303.361-.602.574-.895.314-.433.693-.85 1.102-1.26.424-.424.882-.84 1.408-1.24.917-.699 1.965-1.36 3.12-1.989a32.604 32.604 0 0 1 1.822-.928 69.412 69.412 0 0 1 6.004-2.463c.457-.163.914-.308 1.371-.463a35.776 35.776 0 0 0-.07-1.656 20.165 20.165 0 0 0-.615-3.847c-.916.301-1.84.613-2.775.945-2.042.72-4 1.52-5.877 2.393a39.877 39.877 0 0 0-3.999 2.168c-.407.25-.832.486-1.222.746-.174.116-.332.237-.5.355a19.831 19.831 0 0 0-2.614 2.168c-.315.315-.615.637-.894.966-1.069 1.258-1.81 2.625-2.227 4.104-.415 1.477-.376 3.084.114 4.822.387 1.373 1.101 2.486 2.14 3.34 1.04.853 2.304 1.492 3.792 1.916 1.488.423 3.158.659 5.012.707 1.852.048 3.78-.026 5.782-.226.52-.052 1.051-.127 1.577-.192a49.644 49.644 0 0 1-1.8-1.156 42.5 42.5 0 0 1-2.228.056M52 31.104h2.176l1.312-7.456c.48-2.688 1.856-4.128 4.064-4.128 2.048 0 2.72 1.632 2.272 4.128l-1.312 7.456h2.176L64 23.648c.48-2.688 1.728-4.128 3.968-4.128 2.08 0 2.752 1.6 2.304 4.128l-.768 4.512c-.384 2.016.256 2.944 2.176 2.944h1.472l.32-1.76h-1.216c-.608 0-.736-.352-.64-1.024l.864-4.864c.64-3.584-.992-5.888-3.84-5.888-1.92 0-3.68.896-4.768 2.848-.448-1.728-1.696-2.848-3.584-2.848-2.048 0-3.328 1.088-4.288 2.688l.512-2.4h-2.176L52 31.104zm29.536.256c2.016 0 3.712-1.088 4.864-2.976l-.096.416c-.16 1.408.256 2.304 2.208 2.304h1.44l.32-1.76h-1.216c-.608 0-.736-.352-.64-1.024l1.824-10.464h-2.176l-.544 3.616c-.64-2.4-2.592-3.904-4.928-3.904-3.584 0-6.528 3.008-6.528 7.424 0 3.872 2.272 6.368 5.472 6.368zm.544-1.888c-2.304 0-3.776-1.824-3.776-4.448 0-3.2 1.856-5.536 4.672-5.536 2.432 0 3.936 1.984 3.936 4.576 0 3.168-2.112 5.408-4.832 5.408zm16.48 1.888c2.048 0 3.936-1.12 5.024-3.008l-.096.416c-.16 1.408.256 2.336 2.208 2.336h1.472l.288-1.76h-1.216c-.608 0-.736-.32-.608-1.024L109.216 8h-2.176l-2.368 13.248c-.64-2.112-2.592-3.68-5.024-3.68-3.68 0-6.688 3.008-6.688 7.424 0 3.712 2.24 6.368 5.6 6.368zm.576-1.888c-2.432 0-3.936-1.824-3.936-4.448 0-3.2 1.888-5.536 4.832-5.536 2.528 0 4.128 1.984 4.096 4.576 0 3.168-2.144 5.408-4.992 5.408zm13.408-3.808l10.88-1.152c-.064-4-2.112-6.944-6.24-6.944-3.872 0-6.88 3.104-6.88 7.2 0 3.776 2.72 6.592 6.784 6.592 2.4 0 4.224-.832 5.504-2.144l-1.376-1.344c-.928.96-2.208 1.664-4.128 1.664-2.496 0-4.192-1.568-4.544-3.872zM112.512 24c.288-2.752 2.048-4.64 4.64-4.64 2.656 0 3.776 1.856 3.968 3.744l-8.608.896zm24.864 7.392h.352l4.992-7.968c.48-.8.864-1.888.864-1.888s.128 1.12.384 1.984l2.208 7.872h.352l7.488-13.536h-2.272l-4.032 7.328c-.48.864-.896 2.016-.896 2.016s-.16-1.184-.384-2.016l-2.176-7.52h-.288l-4.576 7.616c-.512.864-.992 2.016-.992 2.016s-.128-1.184-.32-2.016l-1.632-7.424h-2.272l3.2 13.536zm21.952-17.408c.832 0 1.536-.608 1.536-1.536s-.736-1.568-1.536-1.568c-.832 0-1.536.64-1.536 1.568s.736 1.536 1.536 1.536zm-1.632 17.12h1.536l.32-1.76h-1.312c-.608 0-.736-.352-.608-1.024l1.824-10.464h-2.176l-1.792 10.304c-.352 2.016.256 2.944 2.208 2.944zm7.296-11.392l-1.28 7.296c-.576 3.136 1.024 4.352 3.136 4.352 1.472 0 2.336-.512 3.008-1.12l-1.024-1.472c-.448.384-.928.704-1.728.704-1.056 0-1.536-.704-1.248-2.368l1.312-7.392h3.584l.32-1.856h-3.584l1.216-6.912h-2.144l-1.248 6.912h-1.984l-.32 1.856h1.984zm7.936 11.392h2.176l1.312-7.456c.48-2.688 2.016-4.128 4.416-4.128 2.272 0 3.2 1.6 2.752 4.128l-.768 4.448c-.352 1.984.352 3.008 2.24 3.008h1.408l.288-1.76h-1.216c-.608 0-.736-.352-.608-1.024l.864-4.864c.608-3.648-1.28-5.888-4.192-5.888-2.144 0-3.616 1.152-4.608 2.752L179.168 8h-2.176l-4.064 23.104zm37.515-1.199c-1.342 1.012-3.07 1.455-5.099 1.455-4.512 0-7.968-2.944-7.04-8.32l2.4-13.696h2.304l-2.4 13.728c-.736 4.224 1.408 6.272 4.832 6.272 3.072 0 5.056-1.44 5.696-5.152l2.592-14.848h2.304l-2.688 15.136c-.055.316-.118.62-.19.91l-.535 3.074c-.128.672 0 1.024.608 1.024h1.312l-.32 1.76h-1.536c-1.33 0-2.036-.43-2.24-1.343zm6.741 1.199h2.176l1.312-7.456c.48-2.688 2.016-4.128 4.416-4.128 2.272 0 3.2 1.6 2.752 4.128l-.8 4.512c-.352 2.016.288 2.944 2.208 2.944h1.472l.32-1.76h-1.216c-.64 0-.768-.352-.64-1.024l.864-4.864c.64-3.648-1.28-5.888-4.192-5.888-2.144 0-3.744 1.184-4.704 2.944l.544-2.656h-2.176l-2.336 13.248zm20.608-17.12c.832 0 1.536-.608 1.536-1.536s-.736-1.568-1.536-1.568c-.832 0-1.536.64-1.536 1.568s.736 1.536 1.536 1.536zm-1.49 17.264h1.537l.32-1.76h-1.312c-.608 0-.736-.352-.608-1.024L238.063 18h-2.176l-1.792 10.304c-.352 2.016.256 2.944 2.208 2.944zm7.154-11.536l-1.28 7.296c-.576 3.136 1.024 4.352 3.136 4.352 1.472 0 2.336-.512 3.008-1.12l-1.024-1.472c-.448.384-.928.704-1.728.704-1.056 0-1.536-.704-1.248-2.368l1.312-7.392h3.584l.32-1.856h-3.584l1.216-6.912h-2.144l-1.248 6.912h-1.984l-.32 1.856h1.984zm12.48 18.528c3.488 0 5.888-1.888 6.592-5.888l2.56-14.496h-2.176l-1.344 7.456c-.48 2.688-1.984 4.128-4.384 4.128-2.272 0-3.2-1.6-2.752-4.128l1.312-7.456h-2.176l-1.344 7.648c-.64 3.648 1.28 5.888 4.192 5.888 2.112 0 3.552-1.088 4.512-2.496l-.576 3.168c-.512 2.816-2.08 4.256-4.416 4.256-1.984 0-3.072-.896-3.904-2.368l-1.728 1.12c.96 1.952 2.976 3.168 5.632 3.168z"/></g></svg>