<svg xmlns="http://www.w3.org/2000/svg" version="1.1" id="Capa_1" x="0" y="0" width="512" height="512" viewBox="0 0 612 612" xml:space="preserve"><path d="M612 306C612 137.004 474.995 0 306 0 137.004 0 0 137.004 0 306c0 168.995 137.004 306 306 306 168.995 0 306-137.005 306-306zM141.233 414.741a128.774 128.774 0 0 0 16.135 1.029c31.685.056 60.838-11.378 83.955-30.572-29.599-.695-54.551-21.614-63.147-50.323 4.117.862 8.374 1.363 12.713 1.392a63.89 63.89 0 0 0 17.804-2.421c-30.934-6.843-54.245-36.191-54.245-71.159v-.918c9.124 5.508 19.528 8.846 30.627 9.347-18.109-13.103-30.043-35.357-30.043-60.394 0-13.241 3.338-25.593 9.152-36.164 33.354 44.092 83.176 73.356 139.341 77-1.168-5.257-1.753-10.738-1.753-16.329 0-39.53 30.267-71.075 67.599-70.463 19.444.334 37.025 9.263 49.35 23.284 15.411-2.949 29.876-8.624 42.923-16.552-5.035 16.496-15.772 30.238-29.737 38.834 13.687-1.53 26.705-5.146 38.834-10.626-9.068 14.104-20.53 26.427-33.743 36.275.139 3.06.194 6.12.194 9.18 0 93.859-68.016 202.099-192.363 202.043-38.14.028-73.691-11.933-103.596-32.463z" data-original="#000000" class="active-path" data-old_color="#F6F5F5" fill="#F6F6F6"/></svg>